# xmcd
#
# Track frame offsets: 
#        150
#        16602
#        32251
#        47339
#        65007
#        81762
#        99879
#        115669
#        128265
#        145193
#        167560
#        187710
#        198006
#        212553
#        231729
#        249645
#        265288
#        285175
#        308682
#        322895
#
# Disc length: 4519 seconds
#
# Revision: 1
# Processed by: cddbd v1.5.2PL0 Copyright (c) Steve Scherf et al.
# Submitted via: ExactAudioCopy v1.0b3
#
DISCID=f011a514
DTITLE=ちあきなおみ - ちあきなおみ・でらっくす～追憶のなかの20曲～
DYEAR=2011
DGENRE=JPop
TTITLE0=雨に濡れた慕情
TTITLE1=夜間飛行
TTITLE2=X＋Y=LOVE
TTITLE3=愛のくらし
TTITLE4=たばこのけむり
TTITLE5=6カスバの女
TTITLE6=7別れの一本杉
TTITLE7=8網走番外地
TTITLE8=9忠治子守唄
TTITLE9=無法松の一生～度胸千両
TTITLE10=新宿情話
TTITLE11=ふたり自身
TTITLE12=風の吹く日と一日は
TTITLE13=酒場川
TTITLE14=矢切の渡し
TTITLE15=四つのお願い
TTITLE16=あまぐも
TTITLE17=夜へ急ぐ人
TTITLE18=劇場
TTITLE19=喝采
EXTD=
EXTT0=
EXTT1=
EXTT2=
EXTT3=
EXTT4=
EXTT5=
EXTT6=
EXTT7=
EXTT8=
EXTT9=
EXTT10=
EXTT11=
EXTT12=
EXTT13=
EXTT14=
EXTT15=
EXTT16=
EXTT17=
EXTT18=
EXTT19=
PLAYORDER=
